<?xml version="1.0" encoding="utf-8"?>
<!-- Generator: Adobe Illustrator 26.2.1, SVG Export Plug-In . SVG Version: 6.00 Build 0)  -->
<svg version="1.1"
	 id="svg2" sodipodi:docname="courier.eps" xmlns:cc="http://creativecommons.org/ns#" xmlns:dc="http://purl.org/dc/elements/1.1/" xmlns:inkscape="http://www.inkscape.org/namespaces/inkscape" xmlns:rdf="http://www.w3.org/1999/02/22-rdf-syntax-ns#" xmlns:sodipodi="http://sodipodi.sourceforge.net/DTD/sodipodi-0.dtd" xmlns:svg="http://www.w3.org/2000/svg"
	 xmlns="http://www.w3.org/2000/svg" xmlns:xlink="http://www.w3.org/1999/xlink" x="0px" y="0px" viewBox="0 0 2666.7 2666.7"
	 style="enable-background:new 0 0 2666.7 2666.7;" xml:space="preserve">
<style type="text/css">
	.st0{fill:#E1EDFE;}
	.st1{fill:#C7DDFD;}
	.st2{fill:#3483FA;}
	.st3{fill:#FAAE8E;}
	.st4{fill:#E55330;}
	.st5{fill:#2C3637;}
	.st6{fill:#FA887D;}
	.st7{fill:#0860DB;}
	.st8{fill:#E5C642;}
	.st9{fill:#EFD34B;}
	.st10{fill:#EEBE2F;}
	.st11{fill:#C4AC40;}
	.st12{fill:#CCB747;}
	.st13{fill:#F26135;}
	.st14{fill:#2B48F9;}
	.st15{fill:#A1BC32;}
	.st16{fill:#6E8134;}
</style>
<g id="g10" transform="matrix(1.3333333,0,0,-1.3333333,0,2666.6667)" inkscape:groupmode="layer" inkscape:label="ink_ext_XXXXXX">
	<g id="g12" transform="scale(0.1)">
		<path id="path16" class="st0" d="M6307.6,3287c-25.4,0-51.9,2.7-79.3,8l3362.9,26c413.9,1138.4,459.7,3172.2,459.7,3174.2l0,0l0,0
			C9999.2,5201,8601.4,3389.1,8601.4,3389.1c428.1,2218.5-255.7,4027.4-621.5,4788.6c312.8-84.5,643.1-131.4,990.9-131.4
			c260.3,0,530.3,26.3,810.3,82.6c4251.9,856-1165.9,6142.6,3360.4,7351c219.4,58.5,429.9,86.6,630.9,86.6
			c238.2,0,463.6-39.3,676.2-113.3c-17.2-54.6-15.3-99.8-15.3-99.8c-393-149.3-185.6-344.5-141.9-976.1
			c11.8-171.2,107.1-403.1,255.6-647.4c-150.9-57.7-291.7-124.8-390-188.8c0,0-218.9-343.2-276.2-991.8
			c-57.3-648.5,95.5-1701.6,95.5-1701.6l2171-225c0,0-118.8,972.4-111.1,1819.8c53.3-10.8,105.9-16.5,157.1-16.5
			c40,0,79.4,3.5,117.7,10.7c117.2,21.9,217.7,63.7,301.8,120.6c909.8-2911.6,693.1-7112.1-557.5-8711.3
			c-84.9,57.7-144.8,175.4-144.8,175.4c-442.2-154.8-557.6-405.3-580.1-578.6c-3.4-25.6-4.7-49.5-4.7-71.2c0-6.4,0.2-12.7,0.4-18.7
			c-580.1-4.3-2521.4-18.4-4454.5-32.6l2289.6,35.3c16.1,44.2,31.5,89.6,46.4,136.2c1.2-26.9,4.3-42.6,4.3-42.6
			c366.2-62,664.3-79.3,882.8-79.4c275.4,0,424.4,27.5,424.4,27.5c4.2,58,6.7,111.5,7,161.2l0,0l0,0
			c4.1,594.9-254.1,606.7-274.7,606.7c-0.8,0-1.3,0-1.3,0s-14.6-239.6-155.9-250.2c-3.1-0.2-6.1-0.3-9.2-0.3
			c-136.1-0.1-224.7,233.5-224.7,233.5c-311.8-69.8-476.5-201.8-562.5-332.5c277.5,1139.6,277.6,2646,277.6,2646
			c-51.8-1294.3-1449.5-3106.1-1449.5-3106.1c569.4,2950.7-828.3,5176.8-828.3,5176.8c621.2-3313.2-465.9-5176.8-465.9-5176.8
			s433,930.2-705.9,2224.4c0,0,531.7-1180.8-322.6-2267.5c-1875-13.7-3489.7-25.5-3493-25.5C6309.3,3287,6308.4,3287,6307.6,3287
			 M6214.4,3297.8c-17.6,3.9-35.6,8.8-54,14.6c0,2.4,0,4.8,0,7.3c0,22.5-1.4,47.4-5.1,74c-24.6,180.3-150.9,440.8-634.6,601.7
			c0,0-46.9-87.6-117.5-150.9c-631.5,599.4-1297.9,1497-1469,1723.4c-934.5,1236.7-1549.3,2896.6-701.9,4272
			c335.3,544.2,667,748.5,993.6,748.5c690.9,0,1359.8-913.1,1996.4-1452.4c469.9-398,1006.5-726.5,1610.3-915.4
			c334.6-2130.6-39.8-3616.1-306.1-4335.9c-3-0.2-6-0.3-9-0.3c-3.3,0-6.7,0.1-10,0.4C7353,3895.8,7337,4145,7337,4145s-0.5,0-1.4,0
			c-1.8,0-5.4-0.1-10.4-0.6c-75,383.2-283.9,890.6-794.5,1470.8C6530.7,5615.2,6675.7,3667.9,6214.4,3297.8"/>
		<path id="path18" class="st0" d="M9796.3,3303.8c2.3,2.9,4.6,5.8,6.9,8.7c350,2.6,709,5.2,1068.4,7.8L9796.3,3303.8"/>
		<path id="path20" class="st1" d="M9803.2,3312.5c854.3,1086.7,322.6,2267.5,322.6,2267.5c1138.9-1294.2,705.9-2224.4,705.9-2224.4
			s1087.1,1863.6,465.9,5176.8c0,0,1397.7-2226.1,828.3-5176.8c0,0,1397.7,1811.8,1449.5,3106.1c0,0-0.1-1506.4-277.6-2646
			c-51.3-78-74.6-155.5-84.4-219.1c-4.8-31.4-6.3-59.3-6.3-82.2c0-8.2,0.2-15.8,0.5-22.6c-14.9-46.6-30.3-92-46.4-136.2
			l-2289.6-35.3C10512.2,3317.7,10153.2,3315.1,9803.2,3312.5"/>
		<path id="path22" class="st0" d="M6210.6,3294.8c1.3,1,2.5,2,3.8,3c4.6-1,9.3-2,13.9-2.8L6210.6,3294.8 M7979.9,8177.7
			c-49.5,13.3-98.7,27.7-147.3,42.9c-17.8,113.2-37.6,228.5-59.5,345.3C7773.1,8565.9,7859.2,8428.9,7979.9,8177.7"/>
		<path id="path24" class="st1" d="M6228.3,3295c-4.6,0.8-9.3,1.8-13.9,2.8c461.3,370.1,316.3,2317.4,316.3,2317.4
			c510.6-580.2,719.4-1087.6,794.5-1470.8c-56.2-5.5-294.1-62.2-290-630.4l0,0l0,0c0.3-51.6,3-107.3,7.7-167.6
			c0,0,163-28.6,464.2-28.6c239,0,565,18,965.6,82.6c0,0,5.3,25.7,5.3,67.8c0,23.8-1.7,52.8-7,85.4
			c-28.7,176.9-162.9,457.8-707.6,573.7c0,0-93-233.1-236.8-242.6c266.3,719.8,640.6,2205.3,306.1,4335.9
			c48.6-15.2,97.8-29.6,147.3-42.9c365.8-761.2,1049.6-2570.1,621.5-4788.6c0,0,1397.7,1811.9,1449.5,3106.1
			c0-2-45.8-2035.8-459.7-3174.2L6228.3,3295 M10050.9,6495.2L10050.9,6495.2L10050.9,6495.2"/>
		<path id="path26" class="st2" d="M7438.8,13895.3c0,0,708.7-816,951.9-1363.2l1462.6-258.1l-12-411c0,0-1412.8-97.8-1699.8,109.7
			C7854.7,12180.3,7394.5,13052,7438.8,13895.3"/>
		<path id="path28" class="st3" d="M7295.9,4777.2l69-1065l361.5-9.8l99.2,1134.1l-570-63.8"/>
		<path id="path30" class="st2" d="M8472.6,3400.4c-905.5-145.9-1429.8-54-1429.8-54c-4.7,60.3-7.3,116-7.7,167.6
			c-4.7,644.3,301.8,631,301.8,631s16-249.2,170.6-260.2c154.6-11.4,255.9,242.5,255.9,242.5c544.7-115.9,678.9-396.8,707.6-573.7
			C8485.6,3463.4,8472.6,3400.4,8472.6,3400.4"/>
		<path id="path32" class="st2" d="M5190,13913c0,0,872.6,360.4,1175.9,337.8c303.2-22.7,818.6-197.9,1073-355.5
			c0,0,239.5-356.9,302.2-1031.4c62.7-674.5-104.4-1769.5-104.4-1769.5l-2374.8-234.1C5261.7,10860.3,5578.9,13328.1,5190,13913"/>
		<path id="path34" class="st3" d="M6916.6,13634.8l-308.4,35.6l-340.6,378.2l-16.4,529.4l-4.5,146.1
			c318.3,38,582.3-292.8,582.3-292.8l61.2-554.1L6916.6,13634.8"/>
		<path id="path36" class="st4" d="M7855.5,4362.8h-564.4c0,0-57.9,289.1-137.1,590.9c-80.8,307.8-190.8,737.7-308.2,1220.3
			c-115.3,472.5-237.6,995.4-344.4,1502.4c-182.3,858.4-321.5,1670.4-315.1,2115.8c1.6,100.4,4.2,195,9,283.8
			c44.1,854.6,250.9,1152.7,1023.1,1146.9c131.8-0.5,280.6-10.6,447.5-27.6c0,0,21.8-389.1,50-1047
			C7768.3,8952.5,7843.3,6619.9,7855.5,4362.8"/>
		<path id="path38" class="st3" d="M5128.2,4693.4l-50-1066.1l358.1-49.9l224.9,1116h-573.5"/>
		<path id="path40" class="st2" d="M6144.3,3194.2c-916.1-44.3-1427.1,105.6-1427.1,105.6c2.3,69.3,7,131.9,14,189.2
			c71.3,618,367.5,571.3,367.5,571.3s-11.7-249.1,140.6-277.5c152.6-28.3,281.5,212.6,281.5,212.6
			c483.7-160.9,610-421.4,634.6-601.7C6171.3,3277.1,6144.3,3194.2,6144.3,3194.2"/>
		<path id="path42" class="st5" d="M5602.9,3684c-4.6,0-9.4,1.2-13.6,3.8c-12.6,7.5-16.7,23.9-9.1,36.4l187.4,312.4
			c7.5,12.6,23.8,16.8,36.5,9.1c12.6-7.5,16.7-23.8,9.1-36.4L5625.7,3697C5620.8,3688.6,5612,3684,5602.9,3684"/>
		<path id="path44" class="st5" d="M5762.7,3625.7c-4.9,0-9.9,1.4-14.4,4.2c-12.3,8-15.9,24.4-8,36.8l152.5,237.3
			c7.9,12.4,24.4,15.9,36.7,8c12.3-7.9,15.9-24.4,8-36.7l-152.5-237.4C5780,3630,5771.5,3625.7,5762.7,3625.7"/>
		<path id="path46" class="st6" d="M6728.3,13926c-270.6,121.7-407.9,409.4-477.2,652l0,0l-4.5,146.1c17.3,2.1,34.4,3.1,51.3,3.1
			c294.9,0,531-295.9,531-295.9l46.7-423h-147.3V13926"/>
		<path id="path48" class="st7" d="M6261.4,14247.2c0,0,327.3-549.4,503-549.8c175.7-0.4,101.2,444.1,101.2,444.1l127-42.8
			c0,0,139.1-488.4-124.6-550.6c-263.8-62.1-613.4,333.3-731.9,681.3L6261.4,14247.2"/>
		<path id="path50" class="st3" d="M7127.3,15300.4c0,0,224.6-849.8-287.6-980.1c-512.3-130.2-814.1,453.4-785.8,775.7
			C6053.9,15096,6556.2,15699.2,7127.3,15300.4"/>
		<path id="path52" class="st5" d="M7067,15427.1l210.9-388.2l-372,136.2l68.7-164.4c0,0-378.4,265.4-484.5,197.5
			c-106.1-68-154.2-273.4-136.2-415l-148.8,190.1l-22-442.9c0,0-144.5,250.5-179.2,517.9
			C5969.2,15325.7,6641.5,15773.3,7067,15427.1"/>
		<path id="path54" class="st2" d="M7265.9,15288.7l633.5,114.2c0,0-83.1,73.1-408.6,9.8c-325.5-63.3-372.8-63.6-372.8-63.6
			L7265.9,15288.7"/>
		<path id="path56" class="st2" d="M7127.3,15300.4c0,0,29.3,625.5-659.1,561.5s-464.2-803.6-464.2-803.6L7127.3,15300.4"/>
		<path id="path58" class="st3" d="M6268.9,14845.9c0,0-154.4,407.3-316.6,115.3c-162.2-292,305-422.2,341.3-381.6L6268.9,14845.9"
			/>
		<path id="path60" class="st5" d="M5869.4,3550.8c-6.7,0-13.3,2.5-18.5,7.5c-10.6,10.2-10.8,27-0.6,37.5l187.4,193.7
			c10.2,10.6,27,10.8,37.6,0.6c10.6-10.2,10.8-27,0.6-37.6l-187.4-193.6C5883.3,3553.5,5876.4,3550.8,5869.4,3550.8"/>
		<path id="path62" class="st5" d="M7856.7,3888.4c-4.6,0-9.4,1.2-13.6,3.8c-12.6,7.6-16.7,23.9-9.1,36.5l187.4,312.3
			c7.5,12.6,23.8,16.8,36.5,9.1c12.6-7.5,16.7-23.8,9.1-36.4l-187.4-312.3C7874.5,3893.1,7865.7,3888.4,7856.7,3888.4"/>
		<path id="path64" class="st5" d="M8016.4,3830.2c-4.9,0-9.9,1.3-14.4,4.2c-12.3,7.9-15.9,24.3-8,36.7l152.5,237.3
			c7.9,12.4,24.4,15.9,36.7,8c12.3-7.9,15.9-24.4,8-36.7l-152.5-237.4C8033.7,3834.5,8025.2,3830.2,8016.4,3830.2"/>
		<path id="path66" class="st5" d="M8123.2,3755.2c-6.7,0-13.3,2.5-18.5,7.5c-10.6,10.2-10.8,27-0.6,37.6l187.4,193.6
			c10.2,10.6,27,10.8,37.6,0.6c10.6-10.2,10.8-27,0.6-37.6l-187.4-193.6C8137.1,3757.9,8130.1,3755.2,8123.2,3755.2"/>
		<path id="path68" class="st8" d="M6728.3,11296.2h2712.6v2712.1H6728.3V11296.2z"/>
		<path id="path70" class="st9" d="M9440.6,11296.2h934.2v2712.3h-934.2V11296.2z"/>
		<path id="path72" class="st10" d="M9687.1,13328.4h441.2v680h-441.2V13328.4z"/>
		<path id="path74" class="st11" d="M9440.6,11296.2H6728.3v1394.6c436.8-11.6,950.4-236,1413.5-236c152.3,0,299.1,24.2,436,88.3
			c530.4,247.6,514.5,1024.6,457.6,1465.2h405.3V11296.2"/>
		<path id="path76" class="st12" d="M9440.6,11296.2h0.2v2712.1h-0.2V11296.2z"/>
		<path id="path78" class="st3" d="M7915.5,11285.4c0,0,425.7,39.5,738.5,213.6c312.8,174,441.8,286.4,74.5,218.8
			c-367.3-67.6-343.3-26.3-219.5,21.4c123.8,47.8,78.3,177.4-147.7,89.4c-226-87.9-279.5-232.2-473.5-244.7
			C7693.8,11571.4,7791.1,11268.2,7915.5,11285.4"/>
		<path id="path80" class="st13" d="M5638.3,4350.2h-585.7c2.5,2382.1,112.6,4653.7,174.7,5749.8c24.6,433.5,41.6,683,41.6,683
			c25.6,322.3,381.6,441,767.7,473.5c479.4,40.2,1005.6-52.4,1005.6-52.4C7399.2,10060.6,5638.3,4350.2,5638.3,4350.2"/>
		<path id="path82" class="st2" d="M7976.3,11681.3l40.1-431.2c0,0-1809.2-664.3-2567.5-662.4c-758.7,2.1-875.4,599.1-712,1361.4
			c163.4,762.3,453.2,1963.9,453.2,1963.9s354.5-15.9,523.9-402.7c63.8-145.9,101.3-344.5,83.6-615.2
			c-64.5-987.3-117.1-1371.2-117.1-1371.2L7976.3,11681.3"/>
		<path id="path84" class="st5" d="M5683.6,10396.6c-0.9,0-1.8,0.1-2.8,0.3c-7.2,1.5-11.8,8.6-10.2,15.8
			c11.9,56.3,24.1,108.8,36.2,156c1.8,7.1,9.1,11.2,16.2,9.6c7.1-1.9,11.4-9.1,9.6-16.2c-12-46.8-24.1-99-35.9-155
			C5695.3,10400.9,5689.7,10396.6,5683.6,10396.6L5683.6,10396.6z M5625.4,10082.3l-2.2,0.1c-7.2,1.2-12.1,8-11,15.3
			c9,54.7,18.1,107.4,27.4,157.7c1.4,7.3,8.1,12.2,15.5,10.7c7.2-1.3,12-8.2,10.7-15.4c-9.3-50.3-18.4-102.8-27.3-157.3
			C5637.4,10086.9,5631.7,10082.3,5625.4,10082.3z M5577.9,9766.2l-1.8,0.1c-7.3,1.1-12.4,7.8-11.3,15c7.5,54.2,15,107,22.7,158.3
			c1.1,7.3,7.9,12.3,15.1,11.2c7.3-1.1,12.2-7.9,11.2-15.1c-7.7-51.2-15.2-103.9-22.7-158C5590.2,9771,5584.5,9766.2,5577.9,9766.2
			L5577.9,9766.2z M5537.2,9449.4l-1.6,0.1c-7.3,0.9-12.5,7.4-11.6,14.8c6.5,53.8,13,106.7,19.7,158.6c0.9,7.2,7.5,12.1,14.9,11.4
			c7.3-0.9,12.4-7.5,11.5-14.9c-6.6-51.7-13.2-104.5-19.7-158.4C5549.6,9454.3,5543.8,9449.4,5537.2,9449.4L5537.2,9449.4z
			 M5501.2,9132h-1.5c-7.3,0.9-12.6,7.4-11.8,14.7c5.8,53.6,11.6,106.6,17.5,158.8c0.8,7.3,7.7,12.4,14.7,11.7
			c7.3-0.9,12.5-7.4,11.7-14.7c-5.9-52.1-11.8-105.1-17.5-158.6C5513.6,9137,5507.9,9132,5501.2,9132L5501.2,9132z M5468.7,8814.3
			h-1.3c-7.3,0.7-12.6,7.2-11.9,14.5c5.2,53.5,10.5,106.5,15.9,159c0.7,7.3,7.4,12.8,14.6,11.9c7.3-0.8,12.6-7.3,11.9-14.6
			c-5.4-52.5-10.6-105.4-15.9-158.9C5481.2,8819.4,5475.4,8814.3,5468.7,8814.3L5468.7,8814.3z M5438.9,8496.3l-1.2,0.1
			c-7.3,0.6-12.7,7.1-12,14.4c4.8,53.4,9.6,106.4,14.5,159.1c0.7,7.3,7.2,12.6,14.5,12c7.3-0.7,12.7-7.2,12-14.5
			c-4.9-52.6-9.8-105.6-14.5-159C5451.5,8501.5,5445.7,8496.3,5438.9,8496.3z M5411.4,8178.2h-1.1c-7.3,0.6-12.7,7-12.1,14.3
			c4.4,53.3,8.9,106.4,13.5,159.2c0.6,7.3,7.3,12.7,14.4,12.1c7.3-0.6,12.7-7,12.1-14.4c-4.5-52.8-9-105.8-13.5-159
			C5424.1,8183.4,5418.3,8178.2,5411.4,8178.2L5411.4,8178.2z M5385.9,7859.9l-1.1,0.1c-7.3,0.5-12.8,6.9-12.2,14.2
			c4.1,53.2,8.3,106.3,12.6,159.2c0.6,7.3,6.9,13.1,14.3,12.2c7.3-0.6,12.8-7.1,12.2-14.4c-4.3-52.8-8.4-105.9-12.6-159
			C5398.6,7865.2,5392.7,7859.9,5385.9,7859.9L5385.9,7859.9z M5361.9,7541l-1,0.1c-7.3,0.5-12.8,6.9-12.3,14.2
			c3.9,53.2,7.8,106.4,11.8,159.7c0.6,7.3,6.7,13.6,14.2,12.2c7.3-0.5,12.8-6.9,12.3-14.2c-4-53.3-7.9-106.5-11.8-159.7
			C5374.6,7546.4,5368.8,7541,5361.9,7541L5361.9,7541z M5339.5,7222.9h-0.9c-7.3,0.5-12.9,6.8-12.4,14.1c3.6,52.9,7.3,105.9,11,159
			c0.5,7.3,7.7,13.4,14.2,12.3c7.3-0.6,12.8-6.9,12.3-14.2c-3.7-53-7.4-106-11-158.8C5352.2,7228.2,5346.4,7222.9,5339.5,7222.9
			L5339.5,7222.9z M5318.3,6904.3h-0.9c-7.3,0.5-12.9,6.8-12.4,14.1l10.5,159.4c0.5,7.2,6.3,14,14.1,12.3
			c7.3-0.5,12.9-6.8,12.4-14.1l-10.5-159.3C5331.1,6909.7,5325.2,6904.3,5318.3,6904.3z M5298.2,6585.6h-0.8
			c-7.3,0.5-12.9,6.7-12.5,14.1l9.9,159.4c0.5,7.4,6.5,13.5,14.1,12.4c7.3-0.4,12.9-6.7,12.4-14.1l-9.9-159.4
			C5311.1,6591,5305.2,6585.6,5298.2,6585.6L5298.2,6585.6z M5279.3,6266.8h-0.8c-7.3,0.4-12.9,6.7-12.5,14l9.3,159.5
			c0.4,7.3,6.5,12.4,14,12.5c7.3-0.5,12.9-6.8,12.5-14.1l-9.4-159.4C5292.1,6272.2,5286.3,6266.8,5279.3,6266.8L5279.3,6266.8z
			 M5261.3,5947.9h-0.7c-7.3,0.4-13,6.7-12.5,14l8.9,159.4c0.4,7.4,6.3,12.4,14,12.6c7.3-0.4,12.9-6.7,12.5-14l-8.9-159.5
			C5274.2,5953.4,5268.3,5947.9,5261.3,5947.9z M5244.3,5628.8h-0.7c-7.3,0.4-13,6.6-12.6,14l8.4,159.5c0.4,7.3,7.2,12.1,14,12.6
			c7.4-0.5,13-6.7,12.6-14.1l-8.4-159.4C5257.2,5634.3,5251.3,5628.8,5244.3,5628.8z M5228.1,5309.7h-0.6c-7.4,0.3-13,6.6-12.6,13.9
			l8,159.6c0.4,7.3,5.4,12.8,13.9,12.6c7.3-0.4,13-6.6,12.6-13.9l-8-159.6C5241,5315.2,5235.2,5309.7,5228.1,5309.7z M5212.8,4990.3
			h-0.6c-7.3,0.4-13,6.6-12.6,13.9l7.5,159.7c0.4,7.3,7.2,12.3,13.9,12.7c7.4-0.4,13-6.6,12.6-13.9l-7.5-159.7
			C5225.8,4995.9,5219.9,4990.3,5212.8,4990.3z M5198.5,4670.6h-0.6c-7.3,0.3-13,6.5-12.7,13.9l7.1,159.9
			c0.3,7.4,4.9,13.1,13.9,12.7c7.3-0.3,13-6.5,12.7-13.8l-7-160C5211.4,4676.2,5205.6,4670.6,5198.5,4670.6L5198.5,4670.6z
			 M5185.2,4349.2h-0.5c-7.4,0.3-13.1,6.5-12.8,13.8c0,0,2.2,57.3,6.4,161.3c0.3,7.3,6.3,13.5,13.8,12.7c7.3-0.3,13-6.5,12.7-13.8
			c-4.3-103.9-6.4-161.1-6.4-161.2C5198.2,4354.8,5192.3,4349.2,5185.2,4349.2"/>
		<path id="path86" class="st5" d="M6003.9,15031.7c-12.4,0-23.5,8.7-26,21.3c-2.9,14.4,6.4,28.4,20.8,31.3l1702.4,344.6
			c14.4,2.9,28.4-6.4,31.3-20.8c2.9-14.3-6.4-28.3-20.8-31.3l-1702.4-344.6C6007.5,15031.9,6005.7,15031.7,6003.9,15031.7"/>
		<path id="path88" class="st14" d="M5810.8,3186c-705.8,0-1093.6,113.8-1093.6,113.8c2.3,69.3,7,131.9,14,189.2
			c272.1-40.9,772.1-106.9,1169.8-106.9c91.6,0,177.6,3.5,254.3,11.6c3.7-26.6,5.1-51.5,5.1-74c0-2.5,0-4.9,0-7.3
			c-1-72-16-118.2-16-118.2C6026.4,3188.5,5915.1,3186,5810.8,3186"/>
		<path id="path90" class="st14" d="M7507,3317.8c-301.2,0-464.2,28.6-464.2,28.6c-4.7,60.3-7.3,116-7.7,167.6
			c113.2-4.9,287.6-10.4,491.5-10.4c286.2,0,630.3,10.9,944.4,50c5.3-32.6,7-61.6,7-85.4c0-42.1-5.3-67.8-5.3-67.8
			C8072.1,3335.8,7746,3317.8,7507,3317.8"/>
		<path id="path92" class="st3" d="M10405.8,12269.6c0,0-367.5,55-444.7-74.8c-77.2-129.9,51.2-190.4,54.3-223.6
			c3-33.2,10.7-175.8,176-214.2c165.3-38.5,306.6-58.8,306.2,125.2C10497.2,12066.2,10405.8,12269.6,10405.8,12269.6"/>
		<path id="path94" class="st5" d="M7058.9,9278.6c-179.1-1007.2-293.5-1245-226.5-1916.3c46.2-464.5,28.7-939.6,13.3-1188.3
			c-115.3,472.5-237.6,995.4-344.4,1502.4c200.9,785,651.6,2633.4,599.5,3244.1C7100.8,10920.5,7238,10285.2,7058.9,9278.6"/>
		<path id="path96" class="st7" d="M5192.8,13913.4c0,0,471.4-1302.5,334.9-2220.5l1048.2-108.5l-657.5,226.4
			C5918.5,11810.8,5899.9,13400.7,5192.8,13913.4"/>
		<path id="path98" class="st15" d="M10739,3326.3c134.3,369.2,97.6,1017.4,97.6,1017.4c-16.8-419.5-469.9-1006.9-469.9-1006.9
			c184.6,956.6-268.6,1678.3-268.6,1678.3c201.4-1074.1-151-1678.3-151-1678.3s117.5,302.1-251.8,721.6c0,0,67.1-620.9-83.9-738.4
			L10739,3326.3"/>
		<path id="path100" class="st15" d="M10446,16169.5c0,202.6,164.1,366.9,366.8,366.9c143.3,0,267.5-82.2,327.7-202
			c25.2-49.5,39.2-105.6,39.2-164.9c0-202.6-164.3-366.7-366.9-366.7c-97,0-185.1,37.5-250.6,99
			C10490.6,15968.6,10446,16063.8,10446,16169.5 M10822.8,16814c-339.5,0-614.8-275.2-614.8-614.8
			c0-339.5,255.4-1189.8,594.9-1189.8s634.7,850.3,634.7,1189.8C11437.6,16538.8,11162.3,16814,10822.8,16814"/>
		<path id="path102" class="st16" d="M10858,15747.7c-122.5,0-230.5,60.9-295.8,154.1c65.5-61.5,153.6-99,250.6-99
			c202.6,0,366.9,164.1,366.9,366.7l0,0l0,0c0,59.3-14,115.4-39.2,164.9c49.5-61.7,79-140.2,79-225.4
			C11219.5,15909.5,11057.7,15747.7,10858,15747.7"/>
		<path id="path104" class="st3" d="M11952.4,11640.3c0,0-389.1,38-675.1,205.4c-286,167.3-403.9,275.4-68.1,210.4
			c335.8-65,313.8-25.3,200.7,20.6c-113.2,45.9-71.6,170.5,135,86c206.6-84.6,255.5-223.4,432.9-235.4
			C12155.2,11915.4,12066.2,11623.8,11952.4,11640.3"/>
		<path id="path106" class="st5" d="M14433.3,15353.4c0,0-10.9,264.1,262,287.1c272.9,22.9,851.5-91.9,960.7-666.1
			c109.2-574.1,294.8-355.9,884.3-838.2c589.5-482.3,567.7-1550.3-229.3-1699.5c-796.9-149.3-1975.9,1309.1-2019.6,1940.6
			C14247.7,15008.9,14040.3,15204.1,14433.3,15353.4"/>
		<path id="path108" class="st2" d="M14157,13541.1c0,0-647.9-784.7-870.2-1310.8l-1337.2-248.3l11-395.1
			c0,0,1291.6-94.1,1553.9,105.4C13776.8,11891.9,14197.5,12730.2,14157,13541.1"/>
		<path id="path110" class="st3" d="M14287.7,4773.2l-63.1-1024.1l-330.4-9.4l-90.8,1090.5l521.1-61.4"/>
		<path id="path112" class="st2" d="M13211.9,3449.2c827.8-140.3,1307.2-51.9,1307.2-51.9c4.2,58,6.7,111.5,7,161.2
			c4.2,619.5-276,606.7-276,606.7s-14.6-239.6-155.9-250.2c-141.3-10.9-233.9,233.2-233.9,233.2
			c-497.9-111.5-620.7-381.5-646.9-551.6C13200,3509.8,13211.9,3449.2,13211.9,3449.2"/>
		<path id="path114" class="st2" d="M16212.9,13558.1c0,0-797.8,346.6-1075,324.8s-748.3-190.3-980.9-341.8
			c0,0-218.9-343.2-276.2-991.8c-57.3-648.5,95.5-1701.6,95.5-1701.6l2171-225C16147.3,10622.7,15857.4,12995.7,16212.9,13558.1"/>
		<path id="path116" class="st3" d="M14634.5,13290.6l281.9,34.2l311.4,363.7l15,509.1l4.2,140.5c-291,36.5-532.3-281.6-532.3-281.6
			l-56-532.8L14634.5,13290.6"/>
		<path id="path118" class="st4" d="M13776.1,4374.6h516c0,0,52.9,278.1,125.3,568.3c73.9,295.9,174.5,709.4,281.8,1173.4
			c105.5,454.3,217.2,957.2,314.9,1444.8c166.6,825.3,293.9,1606.2,288.1,2034.5c-1.5,96.5-3.9,187.5-8.3,272.9
			c-40.3,821.7-229.3,1108.4-935.2,1102.8c-120.5-0.5-256.6-10.2-409.1-26.6c0,0-20-374-45.7-1006.7
			C13855.8,8788.1,13787.3,6545.1,13776.1,4374.6"/>
		<path id="path120" class="st3" d="M16269.4,4692.5l45.6-1025l-327.4-48.1l-205.5,1073.1h524.3"/>
		<path id="path122" class="st2" d="M15340.4,3250.9c837.5-42.6,1304.7,101.6,1304.7,101.6c-2.1,66.6-6.4,126.8-12.8,181.9
			c-65.2,594.3-335.9,549.4-335.9,549.4s10.7-239.6-128.5-266.8c-139.5-27.3-257.4,204.4-257.4,204.4
			c-442.2-154.8-557.6-405.3-580.1-578.6C15315.8,3330.7,15340.4,3250.9,15340.4,3250.9"/>
		<path id="path124" class="st5" d="M15835.4,3720.3c4.5,0,9.1,1.2,13.3,3.8c12.3,7.8,16.3,24.5,8.9,37.4l-171.3,300.4
			c-7.4,12.9-23.5,17.1-35.6,9.3c-12.3-7.7-16.3-24.5-8.9-37.4l171.3-300.3C15818,3725,15826.6,3720.3,15835.4,3720.3"/>
		<path id="path126" class="st5" d="M15689.3,3664.2c4.8,0,9.6,1.4,14,4.3c12.1,8.2,15.5,25.1,7.8,37.7l-139.4,228.3
			c-7.8,12.7-23.8,16.3-35.9,8.2c-12-8.2-15.5-25-7.8-37.7l139.4-228.3C15672.4,3668.6,15680.8,3664.2,15689.3,3664.2"/>
		<path id="path128" class="st6" d="M14658.7,13523.7l56,532.8c0,0,215.8,284.5,485.4,284.5c15.4,0,31.1-0.9,46.9-2.9l-4.2-140.5
			C15168,13921.8,15006.1,13585.3,14658.7,13523.7"/>
		<path id="path130" class="st7" d="M15233.4,13879.5c0,0-299.2-528.3-459.8-528.7s-92.5,427-92.5,427l-116.1-41.1
			c0,0-127.2-469.7,113.9-529.4c241.1-59.8,560.8,320.4,669.1,655.1L15233.4,13879.5"/>
		<path id="path132" class="st3" d="M14441.8,14892.3c0,0-205.3-817.3,263-942.5c468.3-125.3,744.2,436,718.3,745.9
			C15423.1,14695.7,14963.9,15275.8,14441.8,14892.3"/>
		<path id="path134" class="st3" d="M15226.6,14455.2c0,0,141.1,391.6,289.4,110.8c148.3-280.8-278.9-405.9-312.1-366.9
			L15226.6,14455.2"/>
		<path id="path136" class="st5" d="M15591.7,3592.1c6.5,0,13.1,2.6,18.1,7.7c10.2,10.5,10.6,27.8,0.6,38.6l-171.3,186.2
			c-10.1,10.8-26.5,11-36.7,0.6c-10.3-10.5-10.6-27.8-0.6-38.6l171.3-186.1C15578.2,3594.9,15585,3592.1,15591.7,3592.1"/>
		<path id="path138" class="st5" d="M13712.8,3923.2c4.6,0,9.2,1.2,13.4,3.9c12.3,7.7,16.3,24.5,8.9,37.4l-171.3,300.3
			c-7.4,13-23.5,17.1-35.6,9.4c-12.3-7.7-16.3-24.5-8.9-37.4l171.3-300.3C13695.5,3928,13704.1,3923.2,13712.8,3923.2"/>
		<path id="path140" class="st5" d="M13566.7,3867.2c4.9,0,9.7,1.4,14.1,4.3c12,8.1,15.5,25,7.8,37.7l-139.4,228.3
			c-7.8,12.6-23.8,16.3-35.9,8.2c-12-8.2-15.5-25.1-7.8-37.8l139.4-228.2C13549.9,3871.6,13558.2,3867.2,13566.7,3867.2"/>
		<path id="path142" class="st5" d="M13469.2,3795.1c6.5,0,13,2.6,18,7.7c10.3,10.5,10.6,27.7,0.6,38.5l-171.3,186.2
			c-10,10.8-26.4,11.1-36.6,0.6c-10.3-10.4-10.6-27.7-0.6-38.5l171.3-186.2C13455.7,3797.9,13462.4,3795.1,13469.2,3795.1"/>
		<path id="path144" class="st3" d="M13721.2,11031.4c0,0-389.1,38-675.1,205.4c-286,167.3-403.9,275.4-68.1,210.4
			c335.8-65,313.8-25.3,200.6,20.6c-113.2,45.9-71.6,170.5,135.1,86c206.6-84.5,255.5-223.4,432.9-235.4
			C13923.9,11306.5,13835,11014.9,13721.2,11031.4"/>
		<path id="path146" class="st13" d="M15803.1,4362.6h535.4c-2.2,2290.5-102.9,4474.9-159.7,5528.9c-22.5,416.9-38,656.8-38,656.8
			c-23.4,309.9-348.8,424.1-701.8,455.4c-438.2,38.6-919.3-50.5-919.3-50.5C14193.2,9853.6,15803.1,4362.6,15803.1,4362.6"/>
		<path id="path148" class="st2" d="M13665.6,11412.2l-36.6-414.7c0,0,1654-638.8,2347.2-637c693.6,2,800.3,576.1,650.9,1309.1
			c-149.3,733-414.3,1888.5-414.3,1888.5s-324-15.3-478.9-387.2c-58.3-140.4-92.6-331.3-76.4-591.6
			c58.9-949.4,107.1-1318.6,107.1-1318.6L13665.6,11412.2"/>
		<path id="path150" class="st5" d="M15735.6,10250.7c-7.9,36.6-15.9,71.1-24,103.6c-1.9,7.3,2.3,14.8,9.2,16.7
			c7.2,1.7,14-2.5,15.9-9.7c8.1-32.8,16.2-67.6,24.2-104.6c1.6-7.3-2.8-14.6-9.7-16.3c-1-0.2-2-0.3-2.9-0.3
			C15742.3,10240.1,15737,10244.3,15735.6,10250.7z M15795.2,9929.3c-9.1,56.3-18.3,110.1-27.7,161.1c-1.4,7.5,3.3,14.6,10.2,16
			c7.4,1.9,13.9-3.4,15.2-10.7c9.5-51.3,18.7-105.3,27.8-161.8c1.2-7.5-3.6-14.5-10.6-15.7l-2.2-0.2
			C15801.7,9918,15796.2,9922.7,15795.2,9929.3L15795.2,9929.3z M15842.2,9605.5c-7.3,55.6-14.8,109.6-22.5,162
			c-1,7.5,3.8,14.5,10.9,15.6c6.9,1.1,13.7-4,14.7-11.4c7.7-52.5,15.2-106.7,22.6-162.5c1-7.4-4-14.3-11.1-15.4l-1.7-0.1
			C15848.7,9593.7,15843.1,9598.7,15842.2,9605.5L15842.2,9605.5z M15882.2,9280.5c-6.3,55.3-12.7,109.5-19.2,162.6
			c-0.9,7.5,4.1,14.3,11.2,15.3c7,0.7,13.5-4.3,14.5-11.8c6.5-53.2,12.9-107.5,19.2-162.8c0.9-7.5-4.2-14.2-11.3-15.2l-1.5-0.1
			C15888.6,9268.5,15883,9273.6,15882.2,9280.5z M15917.3,8955c-5.6,55-11.2,109.3-17,162.8c-0.8,7.5,4.3,14.2,11.4,15.1
			c7.7,1,13.6-4.6,14.3-12c5.8-53.6,11.5-107.9,17.1-163.1c0.7-7.5-4.4-14.2-11.6-15h-1.3C15923.6,8942.8,15918,8948,15917.3,8955z
			 M15948.8,8629c-5.1,54.9-10.2,109.3-15.4,163.1c-0.7,7.5,4.5,14.2,11.6,14.9c8.3,0.9,13.5-4.7,14.2-12.2
			c5.2-53.9,10.3-108.3,15.4-163.2c0.6-7.5-4.6-14.1-11.7-14.9h-1.2C15955,8616.7,15949.4,8621.9,15948.8,8629L15948.8,8629z
			 M15977.4,8302.7c-4.6,54.8-9.3,109.2-14.1,163.2c-0.6,7.5,4.6,14.1,11.7,14.8c6.9,1.2,13.6-4.8,14.2-12.3
			c4.7-54,9.4-108.5,14-163.2c0.6-7.5-4.7-14.2-11.8-14.8l-1.1-0.1C15983.6,8290.3,15978,8295.6,15977.4,8302.7L15977.4,8302.7z
			 M16003.8,7976.2c-4.2,54.7-8.6,109.1-12.9,163.3c-0.6,7.5,4.7,14.1,11.8,14.8c7.9,1.1,13.4-5,14-12.5
			c4.4-54.2,8.7-108.7,12.9-163.3c0.6-7.5-4.7-14.1-11.8-14.7l-1.1-0.1C16010,7963.7,16004.4,7969.1,16003.8,7976.2L16003.8,7976.2z
			 M16028.2,7649.6c-3.9,54.5-7.9,109-12,163.3c-0.5,7.5,4.8,14.1,11.9,14.7c7.8,1.5,13.4-5.1,13.9-12.5
			c4.1-54.4,8.1-108.9,12-163.5c0.6-7.5-4.8-14-11.9-14.6h-1C16034.4,7637,16028.7,7642.4,16028.2,7649.6z M16051,7322.2
			l-11.2,163.5c-0.6,7.5,4.8,14.1,12,14.6c8.7,1.2,13.3-5.1,13.8-12.6l11.3-163.6c0.5-7.5-4.9-14-12-14.5l-0.9-0.1
			C16057.2,7309.5,16051.5,7315,16051,7322.2L16051,7322.2z M16072.4,6995.6c-3.4,54.3-6.9,108.9-10.5,163.5
			c-0.5,7.5,4.8,14,12,14.5c6.8,1,13.3-5.1,13.8-12.6c3.6-54.7,7.1-109.3,10.5-163.6c0.6-7.5-4.9-14-12-14.5h-0.9
			C16078.5,6982.9,16072.9,6988.4,16072.4,6995.6L16072.4,6995.6z M16092.5,6668.6l-9.9,163.6c-0.5,7.5,5,13.9,12.2,14.4
			c6.3,1.1,13.3-5.2,13.7-12.7l9.8-163.6c0.5-7.5-4.9-14-12-14.4l-0.9-0.1C16098.7,6655.8,16092.9,6661.4,16092.5,6668.6
			L16092.5,6668.6z M16111.4,6341.5l-9.3,163.6c-0.4,7.5,5,14,12.1,14.5c8.3,0.1,13.4-5.4,13.8-12.8l9.3-163.7
			c0.4-7.5-5-14-12.2-14.4h-0.7C16117.5,6328.7,16111.8,6334.3,16111.4,6341.5L16111.4,6341.5z M16129.3,6014.2
			c-2.8,53.8-5.8,108.4-8.8,163.6c-0.4,7.5,5,14,12.2,14.4c6.8,0.1,13.3-5.3,13.7-12.8c3-55.2,6-109.9,8.8-163.7
			c0.4-7.5-5.1-13.9-12.2-14.4h-0.7C16135.4,6001.3,16129.7,6006.9,16129.3,6014.2z M16146.2,5686.9l-8.3,163.6
			c-0.4,7.5,5.1,13.9,12.3,14.4c8.6-0.4,13.2-5.5,13.6-12.9l8.3-163.8c0.4-7.5-5.1-13.9-12.3-14.3h-0.6
			C16152.3,5673.9,16146.6,5679.6,16146.2,5686.9L16146.2,5686.9z M16162.2,5359.3l-7.9,163.8c-0.3,7.5,5.2,13.9,12.3,14.3
			c7.8,0.1,13.3-5.4,13.6-13l7.9-163.7c0.4-7.5-5.1-14-12.3-14.3h-0.6C16168.3,5346.4,16162.6,5352,16162.2,5359.3L16162.2,5359.3z
			 M16177.2,5031.6l-7.4,163.9c-0.3,7.5,5.2,13.9,12.4,14.3c6.4-0.4,13.2-5.5,13.5-13l7.4-163.9c0.3-7.5-5.2-13.9-12.3-14.3h-0.6
			C16183.3,5018.6,16177.5,5024.3,16177.2,5031.6L16177.2,5031.6z M16191.3,4703.5l-6.9,164.2c-0.3,7.5,5.2,13.8,12.4,14.2
			c6,0.3,13.2-5.5,13.5-13.1l7-164.1c0.3-7.5-5.3-13.9-12.5-14.2h-0.5C16197.4,4690.5,16191.6,4696.2,16191.3,4703.5z
			 M16204.3,4373.9c0,0-2.1,58.9-6.3,165.3c-0.3,7.5,5.2,13.9,12.4,14.2c8.7,0,13.2-5.6,13.5-13.1c4.2-106.4,6.3-165.3,6.3-165.3
			c0.3-7.6-5.3-13.9-12.4-14.2h-0.5C16210.3,4360.8,16204.5,4366.5,16204.3,4373.9"/>
		<path id="path152" class="st14" d="M15645.3,3243.1c-95.3,0-197.1,2.4-304.9,7.8c0,0-12.2,39.5-14.3,102c-0.2,6-0.4,12.3-0.4,18.7
			c0,21.7,1.3,45.6,4.7,71.2c70.1-7.8,148.8-11.1,232.5-11.1c363.5,0,820.6,63.4,1069.4,102.7c6.4-55.1,10.7-115.3,12.8-181.9
			C16645.1,3352.5,16290.5,3243.1,15645.3,3243.1"/>
		<path id="path154" class="st14" d="M14094.7,3369.8c-218.5,0.1-516.6,17.4-882.8,79.4c0,0-3.1,15.7-4.3,42.6
			c-0.3,6.8-0.5,14.4-0.5,22.6c0,22.9,1.5,50.8,6.3,82.2c287.2-37.6,601.8-48.1,863.4-48.1c186.3,0,345.8,5.3,449.3,10
			c-0.3-49.7-2.8-103.2-7-161.2C14519.1,3397.3,14370.1,3369.8,14094.7,3369.8"/>
		<path id="path156" class="st5" d="M14504.3,9101.6c163.8-968.4,268.3-1197.1,207.1-1842.6c-42.3-446.6-26.3-903.5-12.2-1142.7
			c105.5,454.3,217.2,957.2,314.9,1444.8c-183.7,754.8-595.7,2532.2-548.1,3119.4C14466,10680.5,14340.6,10069.6,14504.3,9101.6"/>
		<path id="path158" class="st5" d="M15423.1,14695.7l-72.8-203.5c0,0-98.2,80.3-152.8,287s-240.2,91.9-414.8,114.9
			c-174.7,22.9-273,57.4-273,57.4s-21.8-275.6-141.9-401.9c0,0-87.3,114.8-87.3,149.2c0,34.5-87.4,402,185.6,482.3
			c272.9,80.4,382.1,160.8,589.5,68.9c207.4-91.8,240.2-91.8,305.7-183.7S15423.1,14695.7,15423.1,14695.7"/>
		<path id="path160" class="st7" d="M15849.8,11928.5l-114.6-611.4l-466.7,8.6l409.4,241.1L15849.8,11928.5"/>
	</g>
</g>
</svg>
